<svg xmlns="http://www.w3.org/2000/svg" version="1.1" xmlns:xlink="http://www.w3.org/1999/xlink" xmlns:svgjs="http://svgjs.dev/svgjs" width="1000" height="174" viewBox="0 0 1000 174"><g transform="matrix(1,0,0,1,-0.6060596759199939,0.4758112153542555)"><svg viewBox="0 0 396 69" data-background-color="#ffffff" preserveAspectRatio="xMidYMid meet" height="174" width="1000" xmlns="http://www.w3.org/2000/svg" xmlns:xlink="http://www.w3.org/1999/xlink"><defs></defs><g id="tight-bounds" transform="matrix(1,0,0,1,0.23999963166431826,-0.18868375781289615)"><svg viewBox="0 0 395.52 69.3773675156258" height="69.3773675156258" width="395.52"><g><svg viewBox="0 0 395.52 69.3773675156258" height="69.3773675156258" width="395.52"><g><svg viewBox="0 0 395.52 69.3773675156258" height="69.3773675156258" width="395.52"><g><svg viewBox="0 0 502.07501929611055 88.06796908910088" height="69.3773675156258" width="395.52"><g transform="matrix(1,0,0,1,106.55501929611056,12.171477638218722)"><svg viewBox="0 0 395.52 63.72501381266344" height="63.72501381266344" width="395.52"><g><svg viewBox="0 0 395.52 63.72501381266344" height="63.72501381266344" width="395.52"><g><svg viewBox="0 0 395.52 63.72501381266344" height="63.72501381266344" width="395.52"><g transform="matrix(1,0,0,1,0,0)"><svg width="395.52" viewBox="4.35 -34.95 280.83172347288 45.25" height="63.72501381266344" data-palette-color="#202046"><path d="M4.35-34.5L8.75-34.5 8.75 0 4.35 0 4.35-34.5ZM8.35-20.35L25.2-20.35 25.2-16.55 8.35-16.55 8.35-20.35ZM24.65-34.5L29.05-34.5 29.05 0 24.65 0 24.65-34.5ZM48.8-24.95L48.8-24.95Q51.5-24.95 53.37-24.23 55.25-23.5 56.2-21.8 57.15-20.1 57.15-17.15L57.15-17.15 57.15 0 53.8 0 53.15-5.3 52.85-5.85 52.85-17.15Q52.85-19.4 51.82-20.38 50.8-21.35 47.9-21.35L47.9-21.35Q46-21.35 43.12-21.15 40.25-20.95 37.45-20.7L37.45-20.7 37.05-23.85Q38.75-24.15 40.77-24.4 42.8-24.65 44.9-24.8 47-24.95 48.8-24.95ZM42.7-15L55.15-15 55.1-11.8 43.45-11.75Q41.7-11.7 41-10.83 40.3-9.95 40.3-8.4L40.3-8.4 40.3-6.85Q40.3-4.95 41.2-4.08 42.1-3.2 44.1-3.2L44.1-3.2Q45.5-3.2 47.27-3.73 49.05-4.25 50.85-5.35 52.65-6.45 54.15-8.15L54.15-8.15 54.15-5Q53.6-4.3 52.57-3.38 51.55-2.45 50.12-1.58 48.7-0.7 46.97-0.13 45.25 0.45 43.25 0.45L43.25 0.45Q41.1 0.45 39.45-0.33 37.8-1.1 36.87-2.63 35.95-4.15 35.95-6.35L35.95-6.35 35.95-9Q35.95-11.85 37.72-13.43 39.5-15 42.7-15L42.7-15ZM78.7-24.95L78.7-24.95Q83.15-24.95 85.09-21.68 87.05-18.4 87.05-12.05L87.05-12.05Q87.05-7.35 86.05-4.58 85.05-1.8 83.02-0.6 81 0.6 77.84 0.6L77.84 0.6Q75.45 0.6 73.12-0.05 70.8-0.7 68.59-2.05L68.59-2.05 68.84-4.6Q71.2-3.95 73-3.53 74.8-3.1 76.8-3.1L76.8-3.1Q78.95-3.1 80.22-3.85 81.5-4.6 82.09-6.55 82.7-8.5 82.7-12.05L82.7-12.05Q82.7-15.5 82.15-17.5 81.59-19.5 80.42-20.38 79.25-21.25 77.3-21.25L77.3-21.25Q75.3-21.25 73.34-20.3 71.4-19.35 68.8-17.4L68.8-17.4 68.4-20.25Q69.75-21.7 71.45-22.75 73.15-23.8 75.02-24.38 76.9-24.95 78.7-24.95ZM64.75-24.35L68.25-24.35 68.7-19.3 69-18.65 69-3.05 68.8-2.45Q68.95-1.05 68.97 0.25 69 1.55 69 3L69 3 69 10.05 64.75 10.05 64.75-24.35ZM107.69-24.95L107.69-24.95Q112.14-24.95 114.09-21.68 116.04-18.4 116.04-12.05L116.04-12.05Q116.04-7.35 115.04-4.58 114.04-1.8 112.02-0.6 109.99 0.6 106.84 0.6L106.84 0.6Q104.44 0.6 102.12-0.05 99.79-0.7 97.59-2.05L97.59-2.05 97.84-4.6Q100.19-3.95 101.99-3.53 103.79-3.1 105.79-3.1L105.79-3.1Q107.94-3.1 109.22-3.85 110.49-4.6 111.09-6.55 111.69-8.5 111.69-12.05L111.69-12.05Q111.69-15.5 111.14-17.5 110.59-19.5 109.42-20.38 108.24-21.25 106.29-21.25L106.29-21.25Q104.29-21.25 102.34-20.3 100.39-19.35 97.79-17.4L97.79-17.4 97.39-20.25Q98.74-21.7 100.44-22.75 102.14-23.8 104.02-24.38 105.89-24.95 107.69-24.95ZM93.74-24.35L97.24-24.35 97.69-19.3 97.99-18.65 97.99-3.05 97.79-2.45Q97.94-1.05 97.97 0.25 97.99 1.55 97.99 3L97.99 3 97.99 10.05 93.74 10.05 93.74-24.35ZM139.49-24.35L144.09-24.35 134.34 1.35Q133.74 2.95 132.84 4.5 131.94 6.05 130.66 7.33 129.39 8.6 127.67 9.4 125.94 10.2 123.69 10.3L123.69 10.3 123.29 7.5Q126.24 6.55 127.84 4.95 129.44 3.35 130.39 1.05L130.39 1.05 131.59-1.85Q131.99-2.85 132.39-4.05 132.79-5.25 133.14-6.2L133.14-6.2 139.49-24.35ZM119.49-24.35L124.04-24.35 130.49-6.2Q130.74-5.45 130.99-4.73 131.24-4 131.39-3.25L131.39-3.25 132.54-3.25 131.14 0 129.84 0Q129.34 0 128.91-0.3 128.49-0.6 128.34-1.1L128.34-1.1 119.49-24.35ZM171.29-34.95L171.29-34.95Q175.44-34.95 177.86-34 180.29-33.05 181.34-30.73 182.39-28.4 182.39-24.15L182.39-24.15Q182.39-19.9 181.36-17.55 180.34-15.2 178.01-14.28 175.69-13.35 171.79-13.35L171.79-13.35Q169.69-13.35 167.76-13.45 165.84-13.55 164.24-13.73 162.64-13.9 161.51-14.1 160.39-14.3 159.94-14.45L159.94-14.45 160.09-17.15Q162.74-17.15 165.59-17.15 168.44-17.15 171.24-17.15L171.24-17.15Q173.74-17.2 175.21-17.78 176.69-18.35 177.31-19.88 177.94-21.4 177.94-24.15L177.94-24.15Q177.94-26.95 177.31-28.45 176.69-29.95 175.21-30.55 173.74-31.15 171.24-31.15L171.24-31.15Q167.14-31.15 164.16-31.1 161.19-31.05 160.14-30.95L160.14-30.95 159.44-34.5Q161.34-34.7 162.99-34.8 164.64-34.9 166.59-34.93 168.54-34.95 171.29-34.95ZM159.44-34.5L163.84-34.5 163.84 0 159.44 0 159.44-34.5ZM188.48-24.35L191.78-24.35 192.33-19.7 192.73-18.95 192.73 0 188.48 0 188.48-24.35ZM202.63-24.95L203.73-24.95 203.23-20.95 201.83-20.95Q199.68-20.95 197.53-20.08 195.38-19.2 192.28-17.6L192.28-17.6 191.93-20.25Q194.63-22.45 197.36-23.7 200.08-24.95 202.63-24.95L202.63-24.95ZM208.73-24.35L212.93-24.35 212.93 0 208.73 0 208.73-24.35ZM209.83-34.7L211.83-34.7Q213.13-34.7 213.13-33.4L213.13-33.4 213.13-30.55Q213.13-29.25 211.83-29.25L211.83-29.25 209.83-29.25Q208.53-29.25 208.53-30.55L208.53-30.55 208.53-33.4Q208.53-34.7 209.83-34.7L209.83-34.7ZM250.58-24.95L250.58-24.95Q253.73-24.95 255.4-23.25 257.08-21.55 257.08-18.25L257.08-18.25 257.08 0 252.88 0 252.88-17.05Q252.83-19.3 251.98-20.33 251.13-21.35 249.08-21.35L249.08-21.35Q247.78-21.35 246.6-20.93 245.43-20.5 244.03-19.6 242.63-18.7 240.63-17.25L240.63-17.25 240.38-20.25Q243.03-22.6 245.53-23.78 248.03-24.95 250.58-24.95ZM220.93-24.35L224.43-24.35 224.73-19.7 225.18-18.95 225.18 0 220.93 0 220.93-24.35ZM234.63-24.95L234.63-24.95Q237.73-24.95 239.38-23.28 241.03-21.6 241.08-18.25L241.08-18.25 241.08 0 236.98 0 236.98-17.05Q236.98-19.4 236.03-20.38 235.08-21.35 233.18-21.35L233.18-21.35Q231.93-21.35 230.75-20.95 229.58-20.55 228.15-19.65 226.73-18.75 224.68-17.25L224.68-17.25 224.38-20.25Q227.03-22.6 229.53-23.78 232.03-24.95 234.63-24.95ZM274.73-24.95L274.73-24.95Q280.23-24.95 282.7-22.95 285.18-20.95 285.18-17L285.18-17Q285.23-13.75 283.83-11.93 282.43-10.1 279.38-10.1L279.38-10.1 265.18-10.1 265.18-13.4 278.28-13.4Q279.93-13.4 280.43-14.53 280.93-15.65 280.93-17L280.93-17Q280.88-19.35 279.53-20.35 278.18-21.35 274.93-21.35L274.93-21.35Q272.28-21.35 270.75-20.58 269.23-19.8 268.6-17.88 267.98-15.95 267.98-12.5L267.98-12.5Q267.98-8.6 268.75-6.55 269.53-4.5 271.23-3.75 272.93-3 275.73-3L275.73-3Q277.68-3 280-3.18 282.33-3.35 284.18-3.6L284.18-3.6 284.63-0.75Q283.48-0.3 281.8 0 280.13 0.3 278.35 0.45 276.58 0.6 275.18 0.6L275.18 0.6Q270.98 0.6 268.43-0.68 265.88-1.95 264.7-4.78 263.53-7.6 263.53-12.25L263.53-12.25Q263.53-17.05 264.7-19.83 265.88-22.6 268.35-23.78 270.83-24.95 274.73-24.95Z" opacity="1" transform="matrix(1,0,0,1,0,0)" fill="#202046" class="undefined-text-0" data-fill-palette-color="primary" id="text-0"></path></svg></g></svg></g></svg></g></svg></g><g><svg viewBox="0 0 91.51107293527222 88.06796908910088" height="88.06796908910088" width="91.51107293527222"><g><svg xmlns="http://www.w3.org/2000/svg" xmlns:xlink="http://www.w3.org/1999/xlink" version="1.1" x="0" y="0" viewBox="4.99956570472231 6.693999999999999 90.00025949498807 86.61399999999999" enable-background="new 0 0 100 100" xml:space="preserve" height="88.06796908910088" width="91.51107293527222" class="icon-icon-0" data-fill-palette-color="accent" id="icon-0"><path d="M94.466 40.696l-0.844-2.933c-1.728-5.991-7.172-9.715-12.918-9.715-2.073 0-4.181 0.483-6.175 1.516l-14.165 7.763 4.115-14.562c1.662-8.316-4.697-16.071-13.172-16.071h-3.053c-8.479 0-14.833 7.755-13.172 16.071l2.432 13.718-12.044-6.918c-1.989-1.032-4.102-1.516-6.17-1.516-5.751 0-11.19 3.724-12.923 9.715l-0.844 2.933C3.182 48.839 8.871 57.1 17.315 57.806c0 0 10.023 2.364 14.663 0.394l-11.23 10.186c-6.14 5.843-5.396 15.846 1.539 20.722l2.493 1.752c2.37 1.666 5.056 2.448 7.705 2.448 5.104 0 10.062-2.91 12.315-8.018l4.919-11.757 5.506 11.757c2.253 5.107 7.212 8.018 12.315 8.018 2.649 0 5.335-0.782 7.7-2.448l2.497-1.752c6.937-4.876 7.68-14.879 1.535-20.722L66.745 57.57c4.307 2.02 15.939 0.235 15.939 0.235C91.129 57.1 96.818 48.839 94.466 40.696M40.033 13.384c2.025-2.471 5.025-3.892 8.222-3.892h3.053c3.196 0 6.196 1.421 8.226 3.892 2.003 2.449 2.812 5.624 2.222 8.731l-4.539 16.06c-1.618-0.835-3.394-1.401-5.274-1.652l-2.16-14.156-2.09 14.145c-2.23 0.287-4.312 1.028-6.162 2.126-0.595-0.56-1.019-1.297-1.172-2.149l-2.532-14.271C37.2 19.075 38.005 15.861 40.033 13.384M9.68 50.45c-1.811-2.633-2.344-5.908-1.456-8.979l0.849-2.931c1.308-4.53 5.515-7.692 10.229-7.692 1.684 0 3.311 0.396 4.832 1.177l14.812 8.506c-1.513 1.362-2.768 2.997-3.682 4.841l-14.248-1.793 12.861 5.753c-0.214 1.056-0.328 2.145-0.328 3.263 0 0.977 0.268 2.857 0.268 2.857-4.465 1.9-16.338-0.439-16.338-0.439C14.319 54.726 11.481 53.065 9.68 50.45M42.237 84.16c-1.701 3.855-5.527 6.348-9.752 6.348-2.182 0-4.29-0.669-6.092-1.937l-2.497-1.756c-2.615-1.839-4.255-4.724-4.491-7.913-0.235-3.192 0.958-6.284 3.224-8.442l12.358-11.204c0.87 1.924 2.104 3.651 3.612 5.088l-6.053 12.815 9.748-10.17c1.578 0.82 3.306 1.382 5.134 1.649l0.69 1.471L42.237 84.16zM80.621 78.899c-0.241 3.192-1.872 6.077-4.491 7.916l-2.493 1.756c-1.806 1.268-3.914 1.937-6.096 1.937-4.225 0-8.056-2.492-9.778-6.408l-6.586-14.053 0.568-1.35c2.086-0.254 4.054-0.89 5.82-1.856l9.914 10.318-6.148-13.165c1.32-1.343 2.405-2.915 3.196-4.643l12.866 11.104C79.681 72.657 80.853 75.731 80.621 78.899M65.853 54.754c0 0 0.162-1.426 0.162-2.16 0-1.087-0.114-2.149-0.315-3.178l13.286-5.838-14.742 1.675c-0.932-1.837-2.199-3.468-3.734-4.817l15.311-8.388c1.534-0.793 3.179-1.2 4.885-1.2 4.714 0 8.921 3.162 10.229 7.692l0.844 2.931c0.893 3.071 0.358 6.347-1.456 8.979-1.789 2.6-4.605 4.258-7.74 4.557C82.58 55.007 72.412 56.918 65.853 54.754" fill="#fe633d" data-fill-palette-color="accent"></path></svg></g></svg></g></svg></g></svg></g></svg></g></svg><rect width="395.52" height="69.3773675156258" fill="none" stroke="none" visibility="hidden"></rect></g></svg></g></svg>